<?xml version="1.0" encoding="UTF-8"?>
<svg viewBox="0 0 450 330" xmlns="http://www.w3.org/2000/svg">
 <defs>
  <clipPath id="h">
   <path d="m484.29 588.08a152.86 152.86 0 1 1 -305.71 0 152.86 152.86 0 1 1 305.71 0z"/>
  </clipPath>
  <filter id="f">
   <feGaussianBlur stdDeviation="9.17143"/>
  </filter>
  <filter id="g" x="-.03357" y="-.16742" width="1.0672" height="1.3348">
   <feGaussianBlur stdDeviation="5.52238"/>
  </filter>
  <linearGradient id="d" x1="-38.746" x2="-317.11" y1="815.2" y2="812.36" gradientUnits="userSpaceOnUse">
   <stop offset="0"/>
   <stop stop-opacity="0" offset="1"/>
  </linearGradient>
  <linearGradient id="e" x1="410.39" x2="379.51" y1="472.66" y2="518.53" gradientUnits="userSpaceOnUse">
   <stop stop-color="#fff" stop-opacity=".53879" offset="0"/>
   <stop stop-color="#fff" stop-opacity="0" offset="1"/>
  </linearGradient>
  <radialGradient id="c" cx="282.55" cy="321.69" r="152.86" gradientTransform="matrix(-3.1819e-7 .44499 .80315 0 86.897 538.69)" gradientUnits="userSpaceOnUse">
   <stop stop-color="#fff" stop-opacity=".44828" offset="0"/>
   <stop stop-color="#fff" stop-opacity="0" offset="1"/>
  </radialGradient>
  <radialGradient id="b" cx="453.52" cy="513.83" r="152.86" gradientTransform="matrix(.71723 -.71723 .87074 .87074 -366.27 379.5)" gradientUnits="userSpaceOnUse">
   <stop stop-color="#909090" offset="0"/>
   <stop offset="1"/>
  </radialGradient>
  <radialGradient id="a" cx="-174.35" cy="556.61" r="69.436" gradientTransform="matrix(.013349 1.4275 -1.4166 .013247 648.56 822.32)" gradientUnits="userSpaceOnUse">
   <stop stop-color="#fff" offset="0"/>
   <stop stop-color="#afafaf" offset="1"/>
  </radialGradient>
 </defs>
 <g transform="translate(-49.022 -435.22)">
  <path transform="matrix(.83495 .1389 -.17338 1.0422 434.35 -114.61)" d="m111.43 799.51a200 30 0 1 1 -400 0 200 30 0 1 1 400 0z" fill="url(#d)" filter="url(#g)" opacity=".7732"/>
  <path transform="translate(13,3)" d="m484.29 588.08a152.86 152.86 0 1 1 -305.71 0 152.86 152.86 0 1 1 305.71 0z" fill="url(#b)"/>
  <path d="m442.38 663.4c-21.487 18.17-56.993 30.047-97.131 30.047-39.241 0-74.059-11.345-95.674-28.832-0.74397 2.005-1.4115 4.0326-2.0056 6.0962 13.514 36.777 51.724 63.326 96.725 63.326 47.338 1e-5 87.194-29.381 98.659-69.14-0.18464-0.50301-0.3792-0.99778-0.57304-1.4969z" fill="url(#c)" opacity=".7732"/>
  <path transform="matrix(.76289 0 0 .76289 479.02 131)" d="m-107.14 603.08a69.286 69.286 0 1 1 -138.57 0 69.286 69.286 0 1 1 138.57 0z" fill="url(#a)"/>
  <path d="m344.43 618.45c-2.3203 0-4.5922-0.35046-6.8157-1.0514-2.1994-0.70091-4.1692-1.716-5.9094-3.0453-1.7402-1.3535-3.142-2.9849-4.2054-4.8943-1.0393-1.9335-1.5589-4.1329-1.5589-6.5982-1e-5 -1.861 0.26586-3.5287 0.79759-5.003 0.55588-1.4743 1.2689-2.7794 2.139-3.9154 0.89425-1.1359 1.9094-2.1269 3.0453-2.9728 1.136-0.87006 2.284-1.6193 3.4441-2.2477-0.70092-0.38668-1.4743-0.88215-2.3202-1.4864s-1.6314-1.3534-2.3565-2.2477-1.3414-1.9577-1.8489-3.1903c-0.48339-1.2326-0.72509-2.6707-0.72508-4.3142-1e-5 -2.2235 0.47129-4.1933 1.4139-5.9094 0.96676-1.716 2.2356-3.154 3.8066-4.3142s3.3474-2.0422 5.3293-2.6465c2.006-0.60418 4.0483-0.90629 6.1269-0.90635s4.0725 0.30217 5.9819 0.90635c1.9335 0.60428 3.6374 1.4865 5.1118 2.6465s2.6465 2.5982 3.5166 4.3142c0.89422 1.7161 1.3414 3.6858 1.3414 5.9094-4e-5 1.6436-0.24173 3.0695-0.72508 4.278-0.45925 1.2085-1.0514 2.2599-1.7764 3.1541-0.70095 0.87013-1.4623 1.6194-2.284 2.2477-0.82178 0.60426-1.5831 1.1239-2.284 1.5589 0.99091 0.50758 2.0302 1.1843 3.1178 2.0302 1.0876 0.82178 2.0785 1.8248 2.9728 3.0091 0.9184 1.1602 1.6676 2.5015 2.2478 4.0242 0.60419 1.5227 0.9063 3.2145 0.90634 5.0755-4e-5 2.4653-0.53176 4.6647-1.5952 6.5982-1.0393 1.9094-2.429 3.5408-4.1692 4.8943-1.716 1.3293-3.6858 2.3444-5.9094 3.0453s-4.4955 1.0514-6.8157 1.0514m9.426-40.967c-3e-5 -1.3293-0.25381-2.4894-0.76133-3.4804-0.48341-1.0151-1.1602-1.8489-2.0302-2.5015-0.84595-0.67669-1.8369-1.1722-2.9728-1.4864-1.136-0.33832-2.3565-0.5075-3.6616-0.50755s-2.5257 0.16923-3.6616 0.50755c-1.136 0.31425-2.139 0.80972-3.0091 1.4864-0.84594 0.65262-1.5227 1.4864-2.0302 2.5015-0.4834 0.99099-0.72509 2.1511-0.72508 3.4804-1e-5 1.426 0.24168 2.6828 0.72508 3.7704 0.50753 1.0635 1.1843 1.9698 2.0302 2.719 0.87008 0.72512 1.8731 1.281 3.0091 1.6677 1.1359 0.36257 2.3565 0.54384 3.6616 0.54381s2.5257-0.18124 3.6616-0.54381c1.1359-0.38668 2.1269-0.94256 2.9728-1.6677 0.87007-0.74921 1.5468-1.6556 2.0302-2.719 0.50752-1.0876 0.7613-2.3444 0.76133-3.7704m1.8127 24.653c-3e-5 -1.5226-0.29006-2.9124-0.87009-4.1692-0.55593-1.2568-1.3414-2.3444-2.3565-3.2628-0.99097-0.9184-2.1753-1.6314-3.5529-2.139-1.3535-0.50752-2.8399-0.7613-4.4592-0.76133-1.6435 3e-5 -3.1541 0.25381-4.5317 0.76133-1.3535 0.50758-2.5378 1.2206-3.5529 2.139-0.99095 0.91845-1.7644 2.0061-2.3202 3.2628s-0.83385 2.6465-0.83384 4.1692c-1e-5 1.5952 0.27793 3.0212 0.83384 4.278s1.3293 2.3203 2.3202 3.1903c1.0151 0.8701 2.1994 1.5348 3.5529 1.994 1.3776 0.45922 2.8882 0.68883 4.5317 0.68882 1.6193 1e-5 3.1057-0.2296 4.4592-0.68882 1.3776-0.45921 2.5619-1.1239 3.5529-1.994 1.0151-0.87008 1.8006-1.9335 2.3565-3.1903 0.58003-1.2568 0.87006-2.6828 0.87009-4.278"/>
  <path transform="translate(13,3)" d="m484.29 588.08a152.86 152.86 0 1 1 -305.71 0 152.86 152.86 0 1 1 305.71 0z" clip-path="url(#h)" fill="none" filter="url(#f)" stroke="#000" stroke-linecap="round" stroke-width="6"/>
  <path d="m350.47 455.94c122.38 21.575 133.17 142.96 133.17 142.96s-34.831-79.667-104.13-80.374l-29.041-62.587z" fill="url(#e)" fill-rule="evenodd"/>
 </g>
</svg>
